<svg xmlns="http://www.w3.org/2000/svg" xmlns:xlink="http://www.w3.org/1999/xlink" viewBox="0,0,256,256" width="48px" height="48px" fill-rule="nonzero"><defs><linearGradient x1="20.395" y1="1.634" x2="29.813" y2="60.07" gradientUnits="userSpaceOnUse" id="color-1"><stop offset="0" stop-color="#ffffff"></stop><stop offset="0.443" stop-color="#ffffff"></stop><stop offset="1" stop-color="#ffffff"></stop></linearGradient><linearGradient x1="20.961" y1="1.513" x2="26.53" y2="42.717" gradientUnits="userSpaceOnUse" id="color-2"><stop offset="0" stop-color="#000000"></stop><stop offset="1" stop-color="#000000"></stop></linearGradient></defs><g fill="none" fill-rule="nonzero" stroke="none" stroke-width="1" stroke-linecap="butt" stroke-linejoin="miter" stroke-miterlimit="10" stroke-dasharray="" stroke-dashoffset="0" font-family="none" font-weight="none" font-size="none" text-anchor="none" style="mix-blend-mode: normal"><g transform="scale(5.33333,5.33333)"><path d="M42,10.5v27c0,2.48 -2.02,4.5 -4.5,4.5h-27c-2.48,0 -4.5,-2.02 -4.5,-4.5v-27c0,-2.48 2.02,-4.5 4.5,-4.5h27c2.48,0 4.5,2.02 4.5,4.5z" fill="url(#color-1)"></path><path d="M35.501,23.257c-0.034,-0.062 -0.08,-0.116 -0.116,-0.177c0.804,-1.675 0.832,-3.817 -0.09,-5.6c-1.1,-2.251 -3.596,-3.837 -6.188,-3.812c-0.071,-0.001 -0.141,0.011 -0.211,0.012c-1.049,-1.533 -2.89,-2.628 -4.894,-2.722c-2.499,-0.173 -5.121,1.196 -6.395,3.453c-0.036,0.06 -0.061,0.127 -0.095,0.189c-1.852,0.142 -3.721,1.188 -4.804,2.878c-1.399,2.078 -1.525,5.033 -0.207,7.265c0.034,0.062 0.08,0.116 0.116,0.177c-0.804,1.675 -0.832,3.817 0.09,5.6c1.1,2.251 3.596,3.837 6.188,3.812c0.071,0.001 0.141,-0.011 0.211,-0.012c1.049,1.533 2.89,2.628 4.894,2.722c2.499,0.173 5.121,-1.196 6.395,-3.453c0.036,-0.06 0.061,-0.127 0.095,-0.189c1.852,-0.142 3.721,-1.188 4.804,-2.878c1.399,-2.078 1.525,-5.033 0.207,-7.265zM33.125,18.733c0.556,0.779 0.882,1.742 0.943,2.773c-0.398,-0.353 -0.825,-0.673 -1.283,-0.931c-1.132,-0.59 -2.422,-0.914 -3.681,-0.825c-1.748,0.065 -3.366,0.922 -4.445,2.155c-0.161,-0.051 -0.325,-0.078 -0.489,-0.09c0.021,-1.143 0.36,-2.203 0.967,-3.053c0.913,-1.322 2.439,-2.091 3.966,-2.103c1.55,-0.037 3.068,0.752 4.022,2.074zM20.193,15.909c0.744,-1.36 2.186,-2.28 3.807,-2.445c0.953,-0.092 1.95,0.107 2.873,0.57c-0.505,0.168 -0.995,0.378 -1.448,0.646c-1.077,0.685 -2.003,1.64 -2.555,2.775c-0.819,1.549 -0.885,3.382 -0.353,4.934c-0.12,0.11 -0.227,0.234 -0.322,0.373c-0.981,-0.59 -1.73,-1.414 -2.163,-2.366c-0.689,-1.453 -0.592,-3.158 0.161,-4.487zM14.876,18.731c0.397,-0.871 1.067,-1.635 1.93,-2.203c-0.107,0.521 -0.171,1.051 -0.165,1.577c0.055,1.276 0.419,2.554 1.126,3.6c0.931,1.483 2.484,2.456 4.093,2.773c0.036,0.162 0.085,0.321 0.157,0.471c-0.999,0.552 -2.085,0.786 -3.123,0.686c-1.602,-0.13 -3.03,-1.067 -3.804,-2.383c-0.806,-1.325 -0.882,-3.034 -0.214,-4.521zM14.875,29.267c-0.556,-0.779 -0.882,-1.742 -0.943,-2.773c0.398,0.353 0.825,0.673 1.283,0.931c1.132,0.59 2.422,0.914 3.681,0.825c1.748,-0.065 3.366,-0.922 4.445,-2.155c0.161,0.051 0.325,0.078 0.489,0.09c-0.021,1.143 -0.36,2.203 -0.967,3.053c-0.913,1.322 -2.439,2.091 -3.966,2.103c-1.55,0.037 -3.068,-0.752 -4.022,-2.074zM27.807,32.091c-0.744,1.36 -2.186,2.28 -3.807,2.445c-0.953,0.092 -1.95,-0.107 -2.873,-0.57c0.505,-0.168 0.995,-0.378 1.448,-0.646c1.077,-0.685 2.003,-1.64 2.555,-2.775c0.819,-1.549 0.885,-3.382 0.353,-4.934c0.12,-0.11 0.227,-0.234 0.322,-0.372c0.981,0.59 1.73,1.414 2.163,2.366c0.689,1.452 0.592,3.157 -0.161,4.486zM33.124,29.269c-0.397,0.871 -1.067,1.635 -1.93,2.203c0.107,-0.521 0.171,-1.051 0.165,-1.577c-0.055,-1.275 -0.419,-2.554 -1.126,-3.6c-0.931,-1.483 -2.484,-2.456 -4.093,-2.773c-0.036,-0.162 -0.085,-0.321 -0.157,-0.471c0.999,-0.552 2.085,-0.786 3.123,-0.686c1.602,0.13 3.03,1.067 3.804,2.383c0.806,1.325 0.882,3.034 0.214,4.521z" fill="url(#color-2)"></path></g></g></svg>