<svg xmlns="http://www.w3.org/2000/svg" xmlns:xlink="http://www.w3.org/1999/xlink" viewBox="0,0,256,256" width="96px" height="96px" fill-rule="nonzero"><g transform=""><g fill="#ffffff" fill-rule="nonzero" stroke="none" stroke-width="1" stroke-linecap="butt" stroke-linejoin="miter" stroke-miterlimit="10" stroke-dasharray="" stroke-dashoffset="0" font-family="none" font-weight="none" font-size="none" text-anchor="none" style="mix-blend-mode: normal"><g transform="scale(5.33333,5.33333)"><path d="M37.5,6h-27c-2.481,0 -4.5,2.019 -4.5,4.5v27c0,2.481 2.019,4.5 4.5,4.5h27c2.481,0 4.5,-2.019 4.5,-4.5v-27c0,-2.481 -2.019,-4.5 -4.5,-4.5zM35.294,30.522c-1.083,1.69 -2.952,2.736 -4.804,2.878c-0.034,0.062 -0.058,0.128 -0.095,0.189c-1.274,2.258 -3.896,3.626 -6.395,3.453c-2.005,-0.093 -3.846,-1.188 -4.894,-2.722c-0.071,0.001 -0.141,0.014 -0.211,0.012c-2.592,0.025 -5.088,-1.561 -6.188,-3.812c-0.922,-1.783 -0.894,-3.925 -0.09,-5.6c-0.036,-0.061 -0.082,-0.115 -0.116,-0.177c-1.318,-2.232 -1.192,-5.187 0.207,-7.265c1.083,-1.69 2.952,-2.736 4.804,-2.878c0.034,-0.062 0.058,-0.128 0.095,-0.189c1.274,-2.258 3.896,-3.626 6.395,-3.453c2.005,0.093 3.846,1.188 4.894,2.722c0.07,-0.001 0.14,-0.014 0.211,-0.012c2.592,-0.025 5.088,1.561 6.188,3.812c0.922,1.783 0.894,3.925 0.09,5.6c0.036,0.061 0.082,0.115 0.116,0.177c1.318,2.232 1.192,5.187 -0.207,7.265zM18.896,31.342c-1.549,0.036 -3.068,-0.753 -4.021,-2.075c-0.556,-0.779 -0.882,-1.742 -0.943,-2.773c0.398,0.353 0.825,0.673 1.283,0.931c1.132,0.59 2.422,0.914 3.681,0.825c1.748,-0.065 3.366,-0.922 4.445,-2.155c0.161,0.051 0.325,0.078 0.489,0.09c-0.021,1.143 -0.36,2.203 -0.967,3.053c-0.914,1.323 -2.439,2.092 -3.967,2.104zM15.09,23.251c-0.806,-1.324 -0.882,-3.033 -0.214,-4.52c0.397,-0.871 1.067,-1.635 1.93,-2.203c-0.107,0.521 -0.171,1.051 -0.165,1.577c0.055,1.276 0.419,2.554 1.126,3.6c0.931,1.483 2.484,2.456 4.093,2.773c0.036,0.162 0.085,0.321 0.157,0.471c-0.999,0.552 -2.085,0.786 -3.123,0.686c-1.602,-0.131 -3.03,-1.067 -3.804,-2.384zM29.104,16.658c1.549,-0.036 3.068,0.753 4.021,2.075c0.556,0.779 0.882,1.742 0.943,2.773c-0.398,-0.353 -0.825,-0.673 -1.283,-0.931c-1.132,-0.59 -2.422,-0.914 -3.681,-0.825c-1.748,0.065 -3.366,0.922 -4.445,2.155c-0.161,-0.051 -0.325,-0.078 -0.489,-0.09c0.021,-1.143 0.36,-2.203 0.967,-3.053c0.914,-1.323 2.439,-2.092 3.967,-2.104zM20.031,20.395c-0.688,-1.452 -0.591,-3.157 0.162,-4.486c0.744,-1.36 2.186,-2.28 3.807,-2.445c0.953,-0.092 1.95,0.107 2.873,0.57c-0.505,0.168 -0.995,0.378 -1.448,0.646c-1.077,0.685 -2.003,1.64 -2.555,2.775c-0.819,1.549 -0.885,3.382 -0.353,4.934c-0.12,0.11 -0.227,0.234 -0.322,0.373c-0.981,-0.591 -1.73,-1.415 -2.164,-2.367zM27.969,27.605c0.688,1.452 0.591,3.157 -0.162,4.486c-0.744,1.36 -2.186,2.28 -3.808,2.445c-0.953,0.092 -1.95,-0.107 -2.873,-0.57c0.505,-0.168 0.995,-0.378 1.448,-0.646c1.077,-0.685 2.003,-1.64 2.555,-2.775c0.819,-1.549 0.885,-3.382 0.353,-4.934c0.12,-0.11 0.227,-0.234 0.322,-0.372c0.982,0.59 1.732,1.414 2.165,2.366zM32.91,24.749c0.806,1.324 0.882,3.033 0.214,4.52c-0.397,0.871 -1.067,1.635 -1.93,2.203c0.107,-0.521 0.171,-1.051 0.165,-1.577c-0.055,-1.275 -0.419,-2.554 -1.126,-3.6c-0.931,-1.483 -2.484,-2.456 -4.093,-2.773c-0.036,-0.162 -0.085,-0.321 -0.157,-0.471c0.999,-0.552 2.085,-0.786 3.123,-0.686c1.602,0.131 3.03,1.067 3.804,2.384z"></path></g></g></g></svg>