<svg width="12" height="12" viewBox="0 0 12 12" fill="none" xmlns="http://www.w3.org/2000/svg">
<path d="M6 0.148499C2.685 0.148499 0 2.835 0 6.1485C0 8.8 1.719 11.0485 4.1025 11.841C4.4025 11.8975 4.5125 11.712 4.5125 11.5525C4.5125 11.41 4.5075 11.0325 4.505 10.5325C2.836 10.8945 2.484 9.7275 2.484 9.7275C2.211 9.035 1.8165 8.85 1.8165 8.85C1.273 8.478 1.8585 8.4855 1.8585 8.4855C2.461 8.5275 2.7775 9.1035 2.7775 9.1035C3.3125 10.021 4.182 9.756 4.525 9.6025C4.579 9.2145 4.7335 8.95 4.905 8.8C3.5725 8.65 2.172 8.134 2.172 5.835C2.172 5.18 2.4045 4.645 2.7895 4.225C2.722 4.0735 2.5195 3.4635 2.842 2.637C2.842 2.637 3.3445 2.476 4.492 3.252C4.972 3.1185 5.482 3.0525 5.992 3.0495C6.502 3.0525 7.012 3.1185 7.492 3.252C8.632 2.476 9.1345 2.637 9.1345 2.637C9.457 3.4635 9.2545 4.0735 9.1945 4.225C9.577 4.645 9.8095 5.18 9.8095 5.835C9.8095 8.14 8.407 8.6475 7.072 8.795C7.282 8.975 7.477 9.343 7.477 9.905C7.477 10.708 7.4695 11.353 7.4695 11.548C7.4695 11.7055 7.5745 11.893 7.882 11.833C10.2825 11.046 12 8.796 12 6.1485C12 2.835 9.3135 0.148499 6 0.148499Z" fill="white"/>
</svg>
