<svg width="12" height="12" viewBox="0 0 12 12" fill="none" xmlns="http://www.w3.org/2000/svg">
<path d="M10.2235 10.226H8.4465V7.4415C8.4465 6.7775 8.433 5.923 7.5205 5.923C6.594 5.923 6.4525 6.6455 6.4525 7.3925V10.226H4.6755V4.5H6.3825V5.2805H6.4055C6.644 4.8305 7.224 4.3555 8.0905 4.3555C9.891 4.3555 10.224 5.5405 10.224 7.083V10.226H10.2235ZM2.6685 3.7165C2.0965 3.7165 1.637 3.2535 1.637 2.684C1.637 2.115 2.097 1.6525 2.6685 1.6525C3.2385 1.6525 3.7005 2.115 3.7005 2.684C3.7005 3.2535 3.238 3.7165 2.6685 3.7165ZM3.5595 10.226H1.7775V4.5H3.5595V10.226ZM11.1125 0H0.8855C0.396 0 0 0.387 0 0.8645V11.1355C0 11.6135 0.396 12 0.8855 12H11.111C11.6 12 12 11.6135 12 11.1355V0.8645C12 0.387 11.6 0 11.111 0H11.1125Z" fill="white"/>
</svg>
