<svg width="12" height="11" viewBox="0 0 12 11" fill="none" xmlns="http://www.w3.org/2000/svg">
<path d="M0.586914 8.80469H1.73438C1.8125 8.80469 1.86621 8.75098 1.86621 8.67285V5.66504C1.86621 3.51172 3.55566 2.14941 5.69922 2.14941C7.84766 2.14941 9.53223 3.51172 9.53223 5.66504V8.67285C9.53223 8.75098 9.58594 8.80469 9.66406 8.80469H10.8164C11.0459 8.80469 11.2217 8.66309 11.2217 8.43359V5.26953C11.2217 2.3252 8.83398 0.567383 5.89941 0.567383H5.49902C2.56445 0.567383 0.176758 2.3252 0.176758 5.26953V8.43359C0.176758 8.66309 0.352539 8.80469 0.586914 8.80469ZM2.87695 10.3477H3.95117C4.46387 10.3477 4.83496 10.0303 4.83496 9.51758V6.89062C4.83496 6.37793 4.46387 6.06055 3.95117 6.06055H2.87695C2.59375 6.06055 2.39355 6.24609 2.39355 6.5293V9.87402C2.39355 10.1572 2.59375 10.3477 2.87695 10.3477ZM7.44238 10.3477H8.5166C8.80469 10.3477 9.00977 10.1621 9.00977 9.87402V6.5293C9.00977 6.24121 8.80469 6.06055 8.5166 6.06055H7.44238C6.92969 6.06055 6.55859 6.37793 6.55859 6.89062V9.51758C6.55859 10.0303 6.92969 10.3477 7.44238 10.3477Z" fill="#1A1A1A"/>
</svg>
