<svg width="12" height="10" viewBox="0 0 12 10" fill="none" xmlns="http://www.w3.org/2000/svg">
<path d="M9.29443 0.665527C9.0835 0.819336 6.79395 2.37939 5.32617 3.66699C6.36768 4.01855 7.17188 4.82275 7.52344 5.86426C8.81543 4.39648 10.3711 2.11133 10.5249 1.896C11.0962 1.06982 10.0942 0.0898438 9.29443 0.665527ZM5.29102 5.89502C5.63818 6.24658 5.87988 6.67725 5.96338 7.07715C6.25342 7.02002 6.50391 6.88818 6.75 6.66846C6.79395 6.62891 6.83789 6.58936 6.88184 6.54541C6.73682 5.4248 5.77002 4.44922 4.64502 4.30859C4.60107 4.34814 4.56152 4.39209 4.52637 4.43604C4.29785 4.68652 4.16602 4.94141 4.10889 5.23145C4.50879 5.31055 4.94385 5.54785 5.29102 5.89502ZM1.19971 8.59766C2.04346 9.6084 3.68701 9.85449 4.70215 9.01074C5.5415 8.31641 5.625 7.29248 4.95703 6.48828C4.35059 5.75879 3.37061 5.60498 2.70703 6.16748C2.07422 6.68604 2.32471 7.29248 1.98193 7.56934C1.66113 7.82861 1.33594 7.65723 1.09424 7.85498C0.874512 8.04395 0.953613 8.31641 1.19971 8.59766Z" fill="#1A1A1A"/>
</svg>
