<svg width="12" height="10" viewBox="0 0 12 10" fill="none" xmlns="http://www.w3.org/2000/svg">
<path d="M1.72949 9.01562H10.0791C11.0947 9.01562 11.6318 8.4834 11.6318 7.47754V2.62402C11.6318 1.61816 11.0947 1.08594 10.0791 1.08594H8.89258C8.53125 1.08594 8.41406 1.02734 8.17969 0.792969L7.81836 0.407227C7.56934 0.158203 7.3252 0.0361328 6.85645 0.0361328H4.92773C4.46387 0.0361328 4.21973 0.158203 3.9707 0.407227L3.60449 0.792969C3.375 1.02734 3.25293 1.08594 2.89648 1.08594H1.72949C0.71875 1.08594 0.176758 1.61816 0.176758 2.62402V7.47754C0.176758 8.4834 0.71875 9.01562 1.72949 9.01562ZM5.9043 7.52637C4.53223 7.52637 3.42871 6.42285 3.42871 5.0459C3.42871 3.66406 4.53223 2.56055 5.9043 2.56055C7.28125 2.56055 8.38477 3.66406 8.38477 5.0459C8.38477 6.42285 7.28125 7.52637 5.9043 7.52637ZM8.67773 3.34668C8.67773 3.01465 8.96094 2.72656 9.30762 2.72656C9.63965 2.72656 9.92773 3.01465 9.92773 3.34668C9.92773 3.69336 9.63965 3.9668 9.30762 3.97168C8.96094 3.97168 8.67773 3.69824 8.67773 3.34668ZM5.9043 6.63281C6.7832 6.63281 7.49121 5.9248 7.49121 5.0459C7.49121 4.16211 6.7832 3.45898 5.9043 3.45898C5.03027 3.45898 4.32227 4.16211 4.32227 5.0459C4.32227 5.9248 5.03516 6.63281 5.9043 6.63281Z" fill="#1A1A1A"/>
</svg>
