<svg width="12" height="12" viewBox="0 0 12 12" fill="none" xmlns="http://www.w3.org/2000/svg">
<path fill-rule="evenodd" clip-rule="evenodd" d="M8.86183 3.214C8.92017 3.21283 9.04908 3.22742 9.13308 3.29567C9.1889 3.34414 9.2245 3.41179 9.23283 3.48525C9.24217 3.5395 9.25383 3.66375 9.2445 3.76058C9.1395 4.86775 8.68333 7.55342 8.45117 8.793C8.35317 9.318 8.16008 9.49358 7.97283 9.5105C7.65158 9.5405 7.39132 9.35503 7.10161 9.14855C7.02518 9.09408 6.94669 9.03815 6.8645 8.98433C6.54348 8.77367 6.29518 8.6045 6.04637 8.43499L6.04631 8.43496C5.81769 8.2792 5.58863 8.12315 5.30233 7.93433C4.70703 7.54249 4.95667 7.30207 5.28893 6.98206C5.34248 6.93049 5.39818 6.87684 5.45283 6.82017C5.47749 6.79454 5.59835 6.68214 5.76856 6.52386L5.76857 6.52385C6.3112 6.01925 7.35527 5.04834 7.38192 4.936C7.386 4.91733 7.39008 4.8485 7.34925 4.81233C7.30842 4.77617 7.24775 4.78842 7.204 4.79833C7.14217 4.81233 6.15808 5.46333 4.25175 6.74958C3.97175 6.94208 3.71917 7.03542 3.49225 7.02958C3.24258 7.02492 2.76192 6.889 2.40433 6.77292C2.35152 6.75571 2.30001 6.73948 2.25032 6.72383L2.25025 6.72381C1.88726 6.60945 1.62107 6.52559 1.64775 6.31267C1.6635 6.18667 1.83733 6.05775 2.16867 5.92592C4.20917 5.03692 5.5695 4.45067 6.25083 4.16775C8.1945 3.35925 8.59875 3.21867 8.86183 3.214ZM6 12C9.31371 12 12 9.31371 12 6C12 2.68629 9.31371 0 6 0C2.68629 0 0 2.68629 0 6C0 9.31371 2.68629 12 6 12Z" fill="white"/>
</svg>
