<?xml version="1.0" standalone="no"?>
<!DOCTYPE svg PUBLIC "-//W3C//DTD SVG 20010904//EN"
 "http://www.w3.org/TR/2001/REC-SVG-20010904/DTD/svg10.dtd">
<svg version="1.0" xmlns="http://www.w3.org/2000/svg"
 width="70.000000pt" height="70.000000pt" viewBox="0 0 70.000000 70.000000"
 preserveAspectRatio="xMidYMid meet">
<metadata>
Created by potrace 1.14, written by Peter Selinger 2001-2017
</metadata>
<g transform="translate(0.000000,70.000000) scale(0.100000,-0.100000)"
fill="#000000" stroke="none">
<path d="M149 672 l-27 -3 0 -312 c0 -172 1 -319 4 -327 3 -13 34 -15 206 -14
112 1 215 2 231 3 l27 1 0 259 0 259 -65 67 -64 67 -143 2 c-79 0 -155 0 -169
-2z m287 -69 c-3 -73 5 -83 69 -83 l55 0 0 -238 0 -237 -202 0 -203 0 -3 300
-2 300 144 0 143 0 -1 -42z m83 -31 l23 -23 -38 3 c-32 3 -38 7 -39 28 -3 34
6 46 19 29 7 -8 22 -24 35 -37z"/>
<path d="M253 400 c-72 -29 -46 -150 32 -150 36 0 65 24 48 41 -7 7 -17 7 -31
-2 -29 -18 -54 4 -50 45 3 28 6 31 40 31 45 0 59 12 34 31 -22 16 -41 17 -73
4z"/>
<path d="M350 403 c0 -3 12 -39 27 -80 36 -95 52 -96 87 -5 14 37 26 73 26 80
0 25 -28 11 -40 -20 -6 -18 -15 -42 -20 -53 l-8 -20 -7 20 c-26 69 -36 85 -49
85 -9 0 -16 -3 -16 -7z"/>
</g>
</svg>
